<svg width="282" height="304" viewBox="0 0 282 304" fill="none" xmlns="http://www.w3.org/2000/svg">
<g clip-path="url(#clip0_6_69)">
<path d="M124.375 0L19.6422 60.4722L124.375 120.935V0Z" fill="url(#paint0_linear_6_69)"/>
<path d="M105.584 152L0.874817 91.5468V212.458L105.584 152Z" fill="url(#paint1_linear_6_69)"/>
<path d="M157.625 0V120.921L262.343 60.4625L157.625 0Z" fill="url(#paint2_linear_6_69)"/>
<path d="M157.625 183.056V304L262.358 243.528L157.625 183.056Z" fill="url(#paint3_linear_6_69)"/>
<path d="M124.375 183.056L19.6278 243.518L124.375 304V183.056Z" fill="url(#paint4_linear_6_69)"/>
<path d="M176.388 151.995L281.125 212.463V91.5275L176.388 151.995Z" fill="url(#paint5_linear_6_69)"/>
<path d="M105.584 152L0.874817 159.937V212.458L105.584 152Z" fill="url(#paint6_linear_6_69)"/>
<path d="M176.388 151.995L281.125 212.463V159.914L176.388 151.995Z" fill="url(#paint7_linear_6_69)"/>
</g>
<defs>
<linearGradient id="paint0_linear_6_69" x1="72.0088" y1="-3.15917" x2="72.0088" y2="245.155" gradientUnits="userSpaceOnUse">
<stop stop-color="#29D3DA"/>
<stop offset="0.519" stop-color="#0077FF"/>
<stop offset="0.999" stop-color="#064093"/>
<stop offset="1" stop-color="#084698"/>
</linearGradient>
<linearGradient id="paint1_linear_6_69" x1="30.0289" y1="252.399" x2="51.4466" y2="131.821" gradientUnits="userSpaceOnUse">
<stop offset="0.012" stop-color="#E0B386"/>
<stop offset="0.519" stop-color="#DA498C"/>
<stop offset="1" stop-color="#961484"/>
</linearGradient>
<linearGradient id="paint2_linear_6_69" x1="209.984" y1="-3.15917" x2="209.984" y2="245.155" gradientUnits="userSpaceOnUse">
<stop stop-color="#29D3DA"/>
<stop offset="0.519" stop-color="#0077FF"/>
<stop offset="0.999" stop-color="#064093"/>
<stop offset="1" stop-color="#084698"/>
</linearGradient>
<linearGradient id="paint3_linear_6_69" x1="209.991" y1="372.076" x2="209.991" y2="265.438" gradientUnits="userSpaceOnUse">
<stop stop-color="#29D3DA"/>
<stop offset="0.519" stop-color="#0077FF"/>
<stop offset="0.999" stop-color="#064093"/>
<stop offset="1" stop-color="#084698"/>
</linearGradient>
<linearGradient id="paint4_linear_6_69" x1="72.0017" y1="372.076" x2="72.0017" y2="265.438" gradientUnits="userSpaceOnUse">
<stop stop-color="#29D3DA"/>
<stop offset="0.519" stop-color="#0077FF"/>
<stop offset="0.999" stop-color="#064093"/>
<stop offset="1" stop-color="#084698"/>
</linearGradient>
<linearGradient id="paint5_linear_6_69" x1="219.157" y1="236.224" x2="240.598" y2="115.641" gradientUnits="userSpaceOnUse">
<stop offset="0.012" stop-color="#E0B386"/>
<stop offset="0.519" stop-color="#DA498C"/>
<stop offset="1" stop-color="#961484"/>
</linearGradient>
<linearGradient id="paint6_linear_6_69" x1="37.988" y1="241.783" x2="51.991" y2="162.953" gradientUnits="userSpaceOnUse">
<stop offset="0.012" stop-color="#E0B386"/>
<stop offset="0.519" stop-color="#DA498C"/>
<stop offset="1" stop-color="#961484"/>
</linearGradient>
<linearGradient id="paint7_linear_6_69" x1="222.551" y1="217.178" x2="231.856" y2="164.785" gradientUnits="userSpaceOnUse">
<stop offset="0.012" stop-color="#E0B386"/>
<stop offset="0.519" stop-color="#DA498C"/>
<stop offset="1" stop-color="#961484"/>
</linearGradient>
<clipPath id="clip0_6_69">
<rect width="282" height="304" fill="white"/>
</clipPath>
</defs>
</svg>
